<svg xmlns="http://www.w3.org/2000/svg" width="24" height="45.642"><path fill="none" stroke="#fff" stroke-linecap="round" stroke-width="3" d="M12.5 18.016v26.126"/><g fill="#fff"><path d="M22.379 21.853l-10.233-3.12-.146-.045-.146.045-10.233 3.12 7.626-8.249.09-.096.03-.129L12 2.184l2.633 11.195.03.129.09.096 7.626 8.25z"/><path d="M12 4.368l-2.147 9.126-.06.256-.179.194-6.372 6.892 8.466-2.581.292-.09.292.09 8.466 2.581-6.372-6.892-.18-.194-.06-.256L12 4.368M12 0l3.12 13.265L24 22.87l-12-3.659-12 3.66 8.88-9.606L12 0z"/></g></svg>